<?xml version="1.0" encoding="utf-8"?>
<!-- Generator: Adobe Illustrator 17.0.0, SVG Export Plug-In . SVG Version: 6.00 Build 0)  -->
<!DOCTYPE svg PUBLIC "-//W3C//DTD SVG 1.1//EN" "http://www.w3.org/Graphics/SVG/1.1/DTD/svg11.dtd">
<svg version="1.1" id="Layer_1" xmlns="http://www.w3.org/2000/svg" xmlns:xlink="http://www.w3.org/1999/xlink" x="0px" y="0px"
	 width="300px" height="300px" viewBox="0 0 300 300" enable-background="new 0 0 300 300" xml:space="preserve">
<g>
	<path fill="#1EB29E" d="M287.333,33.44c0,78.137,0,156.273,0,234.41c-0.297,3.309-1.044,6.426-3.135,9.161
		c-3.073,4.02-6.604,7.467-11.324,9.451c-1.563,0.657-3.367,0.461-5.024,0.871c-78.238,0-156.476,0-234.714,0
		c-3.183-0.437-6.246-1.11-8.906-3.144c-4.261-3.26-7.782-7.081-9.787-12.126c-0.695-1.749-0.912-3.654-0.913-5.5
		c-0.036-77.27-0.032-154.54-0.027-231.81c0-4.183,1.524-7.871,4.038-11.115c2.558-3.301,5.574-6.128,9.317-8.116
		c2.607-1.385,5.411-1.998,8.297-1.999c76.712-0.029,153.424-0.019,230.136-0.034c4.562-0.001,8.702,1.226,12.307,4.007
		c3.104,2.394,5.709,5.258,7.802,8.613C286.825,28.392,286.866,30.952,287.333,33.44z"/>
	<path fill="#FEFEFE" d="M173.441,135.024c1.199-1.024,1.919-2.405,2.851-3.588c1.312-1.667,2.766-3.133,4.468-4.417
		c1.552-1.171,3.051-2.393,4.678-3.479c2.601-1.735,5.446-2.902,8.352-3.911c3.327-1.155,6.802-1.679,10.283-2.268
		c4.951-0.838,9.909-0.612,14.793-0.294c4.806,0.314,9.401,2.29,13.452,4.925c2.565,1.668,5.226,3.437,7.152,5.932
		c2.123,2.749,4.202,5.521,5.889,8.598c2.059,3.755,3.426,7.768,4.667,11.803c0.565,1.838,1.006,3.794,1.294,5.763
		c0.395,2.703,0.683,5.429,1.136,8.099c0.412,2.432,0.275,4.8,0.395,7.192c1.174,23.436,0.225,46.89,0.571,70.332
		c0.022,1.516-0.324,1.957-1.901,1.949c-13.901-0.067-27.803-0.062-41.704-0.006c-1.505,0.006-1.96-0.328-1.956-1.916
		c0.058-22.019-0.01-44.038,0.076-66.057c0.02-5.215-0.94-10.051-3.574-14.591c-2.39-4.12-5.71-7.157-10.288-8.297
		c-2.408-0.599-5.025-0.223-7.574,0.57c-3.8,1.182-6.619,3.591-9.01,6.509c-1.66,2.026-2.632,4.533-3.306,7.11
		c-1.711,6.54-1.001,13.212-1.03,19.831c-0.082,18.315-0.044,36.631,0.003,54.946c0.004,1.42-0.304,1.902-1.815,1.895
		c-13.799-0.057-27.599-0.05-41.399-0.008c-1.335,0.004-1.817-0.27-1.815-1.738c0.042-40.588,0.042-81.176,0.003-121.764
		c-0.001-1.416,0.396-1.783,1.783-1.778c13.85,0.048,27.701,0.048,41.552-0.001c1.354-0.005,1.712,0.386,1.692,1.717
		c-0.076,5.123-0.038,10.248-0.023,15.372C173.136,133.932,172.938,134.459,173.441,135.024z"/>
	<path fill="#FEFEFE" d="M47.9,178.856c0-20.239,0.015-40.478-0.032-60.717c-0.003-1.409,0.386-1.775,1.774-1.771
		c14,0.049,28,0.048,42,0.001c1.39-0.005,1.779,0.368,1.778,1.78c-0.039,40.58-0.039,81.159,0.001,121.739
		c0.001,1.432-0.423,1.767-1.792,1.762c-14-0.046-28-0.049-42,0.003c-1.404,0.005-1.763-0.383-1.76-1.776
		C47.914,219.537,47.9,199.197,47.9,178.856z"/>
	<path fill="#FEFEFE" d="M48.438,80.774c-0.327-3.438,0.582-6.624,2.089-9.641c2.582-5.17,6.737-8.574,12.212-10.303
		c3.718-1.175,7.621-1.67,11.442-1.081c4.33,0.667,8.449,2.126,11.888,5.133c2.596,2.271,4.581,4.887,5.939,8.055
		c0.382,0.89,0.678,1.948,0.678,2.69c0,2.193,1.201,4.215,0.32,6.623c-0.589,1.609-0.501,3.571-1.181,5.313
		c-0.71,1.819-1.615,3.47-2.709,5.106c-2.23,3.335-5.465,5.182-8.947,6.735c-1.946,0.868-3.994,1.582-6.169,1.442
		c-0.973-0.063-1.683,0.641-2.619,0.566c-4.993-0.399-9.938-1.108-14.211-3.933c-4.124-2.726-6.814-6.567-8.256-11.359
		C48.368,84.312,48.551,82.554,48.438,80.774z"/>
</g>
</svg>
