<?xml version="1.0" encoding="utf-8"?>
<!-- Generator: Adobe Illustrator 17.0.0, SVG Export Plug-In . SVG Version: 6.00 Build 0)  -->
<!DOCTYPE svg PUBLIC "-//W3C//DTD SVG 1.1//EN" "http://www.w3.org/Graphics/SVG/1.1/DTD/svg11.dtd">
<svg version="1.1" id="Layer_1" xmlns="http://www.w3.org/2000/svg" xmlns:xlink="http://www.w3.org/1999/xlink" x="0px" y="0px"
	 width="300px" height="300px" viewBox="0 0 300 300" enable-background="new 0 0 300 300" xml:space="preserve">
<g>
	<path fill="#1EB09C" d="M291.667,267.811c-2.416,3.083-4.095,3.441-7.698,1.71c-28.183-13.542-56.371-27.074-84.547-40.631
		c-0.648-0.312-1.438-0.36-1.941-0.964c0.779-0.71,1.364-1.559,1.911-2.46c6.966-11.504,14.019-22.955,21.016-34.439
		c7.132-11.707,14.254-23.421,21.408-35.115c9.093-14.865,18.137-29.759,27.238-44.618c6.177-10.084,12.302-20.201,18.473-30.288
		c1.502-2.454,1.767-4.855,0.338-7.394c-0.198-0.352-0.487-0.704-0.277-1.164c1.977,0.599,3.248,1.959,4.08,3.79
		C291.667,140.095,291.667,203.953,291.667,267.811z"/>
	<path fill="#14786A" d="M103.569,267.227c-1.196,3.24-3.928,4.145-7.397,2.469c-7.762-3.749-15.526-7.496-23.294-11.232
		c-20.009-9.623-40.018-19.246-60.036-28.851c-2.346-1.125-3.537-2.77-3.535-5.506C9.347,161.821,9.372,99.535,9.259,37.249
		c-0.007-4.078,3.513-6.699,7.528-4.753c25.121,12.18,50.311,24.217,75.478,36.304c3.566,1.713,7.204,3.279,10.661,5.215
		c1.077,0.695,1.452,1.73,1.444,2.957c-0.003,0.523,0.004,1.046,0.004,1.57c0,33.591,0,67.182,0,100.772
		c-1.421,14.486-0.469,29.008-0.639,43.513c-0.169,14.491-0.037,28.986-0.039,43.479
		C103.697,266.618,103.737,266.938,103.569,267.227z"/>
	<path fill="#1B9F8D" d="M287.587,72.446c2.105,2.965,2.099,5.833,0.128,8.983c-5.862,9.369-11.568,18.836-17.324,28.272
		c-9.313,15.266-18.612,30.54-27.926,45.805c-5.431,8.901-10.899,17.779-16.318,26.688c-8.968,14.744-17.904,29.507-26.877,44.247
		c-0.401,0.659-0.668,1.628-1.788,1.485c-0.29,0.027-0.553-0.018-0.74-0.271c0.107-0.666-0.159-1.22-0.496-1.768
		c-5.969-9.72-11.925-19.449-17.894-29.168c-5.477-8.917-10.923-17.853-16.415-26.761c-4.695-7.616-9.341-15.261-14.027-22.882
		c-3.699-6.015-7.319-12.079-11.112-18.036c-0.191-0.299-0.47-0.585-0.27-0.996c0.861,0.205,1.031-0.517,1.337-1.021
		c9.091-14.962,18.176-29.929,27.264-44.892c9.604-15.812,19.208-31.624,28.819-47.431c2.43-3.996,5.208-4.841,9.39-2.839
		c26.759,12.813,53.515,25.634,80.266,38.464C284.958,70.974,286.376,71.519,287.587,72.446z"/>
	<path fill="#188B7C" d="M136.526,128.043c3.336,4.726,6.127,9.794,9.197,14.687c3.46,5.514,6.827,11.087,10.223,16.641
		c4.347,7.109,8.673,14.231,13.026,21.336c4.843,7.905,9.707,15.797,14.558,23.697c4.442,7.234,8.89,14.464,13.291,21.723
		c0.234,0.386,1.222,1.103-0.081,1.528c-0.71-0.074-1.256-0.508-1.85-0.837c-0.893-0.883-2.109-1.15-3.19-1.676
		c-4.532-1.844-8.856-4.131-13.262-6.242c-22.486-10.773-44.949-21.592-67.42-32.396c-2.015-0.969-4.045-1.909-6.038-2.923
		c-0.861-0.438-1.146-0.22-1.108,0.682c0.017,0.418,0.007,0.837,0.007,1.255c0,26.211,0.003,52.423-0.011,78.634
		c-0.001,1.027,0.208,2.091-0.299,3.075c-0.01-3.296-0.03-6.592-0.03-9.888c-0.003-23.232-0.259-46.468,0.058-69.696
		c0.503-36.876,0.065-73.751,0.286-110.626c0.007-1.153-0.147-2.155-0.955-3.001c0.77-0.03,1.05,0.554,1.378,1.088
		c10.248,16.739,20.5,33.476,30.741,50.219C135.584,126.203,136.035,127.135,136.526,128.043z"/>
	<path fill="#1B9F8D" d="M191.699,225.141c1.235,0.232,2.442,0.518,3.19,1.676C193.835,226.241,192.638,225.937,191.699,225.141z"/>
</g>
</svg>
