<?xml version="1.0" encoding="utf-8"?>
<!-- Generator: Adobe Illustrator 17.0.0, SVG Export Plug-In . SVG Version: 6.00 Build 0)  -->
<!DOCTYPE svg PUBLIC "-//W3C//DTD SVG 1.1//EN" "http://www.w3.org/Graphics/SVG/1.1/DTD/svg11.dtd">
<svg version="1.1" id="Layer_1" xmlns="http://www.w3.org/2000/svg" xmlns:xlink="http://www.w3.org/1999/xlink" x="0px" y="0px"
	 width="300px" height="300px" viewBox="0 0 300 300" enable-background="new 0 0 300 300" xml:space="preserve">
<g>
	<path fill="#1EB29E" d="M4.063,244.985c0.918-0.563,1.527-0.383,2.102-0.383c8.484,0.004,16.974,0.149,25.435-0.595
		c7.386-0.649,14.525-2.554,21.621-4.605c13.724-3.966,26.037-10.751,37.663-18.902c0.331-0.232,0.937-0.371,0.751-0.92
		c-0.163-0.481-0.759-0.37-1.158-0.423c-4.995-0.663-9.936-1.555-14.756-3.073c-9.029-2.843-16.954-7.525-23.802-14.063
		c-6.519-6.223-11.408-13.524-14.669-21.916c-1.157-2.977-1.074-2.976,1.918-2.863c6.236,0.235,12.478,0.353,18.699-0.324
		c1.026-0.112,2.027-0.445,3.039-0.678c0.281-0.065,0.554-0.215,0.585-0.5c0.049-0.448-0.349-0.493-0.663-0.55
		c-3.811-0.69-7.265-2.372-10.8-3.844c-5.534-2.305-10.239-5.842-14.736-9.713c-9.077-7.813-14.734-17.827-18.331-29.051
		c-1.606-5.01-2.024-10.289-2.023-15.571c0-1.568,0.803-1.256,1.678-0.793c3.644,1.928,7.451,3.448,11.438,4.484
		c4.125,1.071,8.29,1.94,12.664,2.142c-0.051-0.974-0.776-1.268-1.281-1.681c-5.151-4.21-9.828-8.848-13.585-14.387
		c-3.567-5.258-6.246-10.911-7.91-17.029c-4.268-15.685-2.966-30.864,4.263-45.481c0.924-1.868,0.896-1.866,2.405-0.438
		c7.233,6.849,14.077,14.102,21.575,20.679c12.7,11.138,26.903,19.862,42.358,26.603c10.763,4.695,21.888,8.268,33.367,10.728
		c8.142,1.744,16.391,2.739,24.679,3.457c1.361,0.118,1.819-0.176,1.577-1.712c-1.203-7.628-1.021-15.304,0.048-22.905
		c1.202-8.549,4.797-16.237,9.687-23.291c7.487-10.801,17.481-18.384,29.789-23c9.142-3.429,18.522-3.825,28.114-2.839
		c9.372,0.964,17.765,4.414,25.608,9.43c2.494,1.595,4.909,3.38,6.906,5.522c2.871,3.08,6.019,3.364,9.832,2.291
		c9.3-2.616,18.205-6.203,26.896-10.372c1.329-0.638,2.698-1.193,4.049-1.784c0.44-0.192,0.923-0.57,1.352-0.119
		c0.364,0.383,0.002,0.834-0.156,1.215c-3.967,9.531-9.588,17.909-17.312,24.823c-2.024,1.812-4.018,3.657-6.542,5.282
		c1.442,0.623,2.561,0.367,3.647,0.171c8.146-1.466,16.083-3.702,23.848-6.559c0.82-0.302,1.64-0.622,2.484-0.836
		c0.42-0.106,0.949-0.665,1.315-0.072c0.32,0.518-0.043,1.019-0.391,1.479c-1.584,2.092-3.032,4.298-4.732,6.289
		c-6.659,7.797-13.737,15.178-22,21.321c-0.943,0.701-1.27,1.497-1.305,2.63c-0.304,9.845-0.694,19.687-2.011,29.462
		c-1.207,8.962-3.216,17.751-5.868,26.392c-3.458,11.269-7.818,22.176-13.271,32.633c-5.97,11.449-13.194,22.046-21.587,31.861
		c-10.487,12.263-22.356,22.97-35.869,31.794c-11.314,7.388-23.362,13.323-36.175,17.678c-12.322,4.188-24.967,6.786-37.892,8.299
		c-7.921,0.927-15.825,0.234-23.73,0.526c-1.804,0.067-3.614-0.021-5.42,0.015c-9.569,0.19-18.914-1.502-28.234-3.376
		c-17.437-3.506-33.541-10.509-49.12-18.854C8.119,247.613,6.231,246.317,4.063,244.985z"/>
</g>
</svg>
